<?xml version="1.0" encoding="utf-8"?>
<svg viewBox="0 0 500 500" xmlns="http://www.w3.org/2000/svg">
  <path id="path-2" stroke-width="1" d="M 189.341 164.089 C 189.341 164.089 189.341 150.267 189.341 150.267 C 189.357 140.024 191.631 129.96 193.881 120.036 C 200.739 89.797 213.258 65.057 229.07 38.843 C 234.536 29.783 240.587 21.274 247.149 13.008 C 249.771 9.691 253.522 4.932 258.089 4.767 C 262.324 4.612 266.236 9.086 268.757 12.066 C 274.121 18.406 282.202 29.98 286.767 37.114 C 302.248 61.335 318.638 93.192 323.9 121.765 C 326.582 136.336 325.988 142.787 325.988 157.178 C 333.169 153.128 348.361 148.152 356.543 146.061 C 379.976 140.066 397.155 138.935 421.047 139.038 C 421.047 139.038 441.416 138.176 441.416 138.176 C 441.416 138.176 467.727 138.176 467.727 138.176 C 472.345 138.184 483.862 138.358 486.884 141.829 C 490.669 146.165 487.715 152.47 486.111 157.178 C 481.74 169.98 476.046 182.235 470.062 194.321 C 459.775 215.126 443.487 239.322 426.139 254.541 C 418.789 260.984 410.531 265.553 402.518 270.944 C 402.518 270.944 396.425 275.937 396.425 275.937 C 390.551 280.255 376.344 288.029 369.274 289.333 C 374.587 296.208 391.485 304.379 400.286 315.246 C 421.182 341.047 433.837 372.073 441.73 404.213 C 444.217 414.336 448.826 438.348 449.047 448.265 C 449.14 452.783 449.14 458.32 444.718 460.963 C 440.763 463.079 433.914 461.618 429.534 460.963 C 429.534 460.963 392.189 454.018 392.189 454.018 C 356.382 446.124 324.257 434.885 298.684 406.813 C 298.684 406.813 290.986 398.995 290.986 398.995 C 289.076 396.516 285.104 390.609 283.958 387.802 C 283.958 387.802 278.459 370.526 278.459 370.526 C 277.524 375.58 275.683 378.083 273.629 382.619 C 267.943 395.126 259.455 406.113 249.601 415.519 C 219.097 444.638 192.566 458.568 153.693 472.822 C 153.693 472.822 120.591 483.826 120.591 483.826 C 116.196 485.209 108.922 487.601 104.627 485.139 C 101.471 483.325 100.706 479.291 100.367 475.906 C 100.367 475.906 99.373 450.857 99.373 450.857 C 99.586 426.36 105.11 393.467 115.593 371.39 C 119.778 362.58 124.404 355.488 130.667 348.07 C 133.263 344.995 138.976 339.932 139.265 335.976 C 144.052 334.465 145.282 330.242 148.601 326.476 C 148.601 326.476 163.064 310.141 163.064 310.141 C 167.205 306.107 169.53 305.556 173.214 300.562 C 160.509 300.562 146.734 298.524 135.021 293.211 C 121.441 287.044 110.034 277.456 99.373 267.074 C 78.86 247.113 68.411 232.678 53.847 208.14 C 45.106 193.412 36.041 174.254 30.362 158.043 C 28.419 152.47 24.1 142.149 32.357 139.478 C 33.816 139.005 35.879 139.047 37.416 139.005 C 37.416 139.005 50.996 139.005 50.996 139.005 C 50.996 139.005 61.181 138.176 61.181 138.176 C 107.87 138.098 148.652 136.482 189.341 164.089 Z M 258.089 56.981 C 255.117 60.006 251.621 67.564 249.406 71.667 C 249.406 71.667 236.615 96.715 236.615 96.715 C 226.634 119.225 216.28 144.895 211.926 169.27 C 210.516 177.156 209.719 184.577 209.71 192.592 C 209.71 192.592 208.862 205.547 208.862 205.547 C 208.862 205.547 208.862 222.823 208.862 222.823 C 208.862 222.823 203.769 221.096 203.769 221.096 C 202.929 216.545 199.483 214.117 196.13 211.24 C 189.866 205.859 183.4 200.755 176.609 196.073 C 149.306 177.242 120.983 170.083 88.34 170.134 C 88.34 170.134 64.575 171.862 64.575 171.862 C 66.298 175.179 71.154 185.553 74.192 186.917 C 75.55 187.53 78.317 187.409 79.852 187.409 C 96.124 187.435 93.459 188.023 108.217 189.724 C 108.217 189.724 120.591 191.185 120.591 191.185 C 130.116 193.153 147.633 200.142 156.239 204.789 C 168.698 211.517 189.179 227.66 198.43 238.371 C 198.43 238.371 209.286 251.337 209.286 251.337 C 212.554 256.052 217.009 263.869 221.592 266.876 C 221.592 266.876 222.44 252.191 222.44 252.191 C 222.458 239.487 222.755 226.796 224.385 214.186 C 224.385 214.186 227.959 196.046 227.959 196.046 C 228.391 192.868 227.567 191.332 228.62 184.817 C 231.191 168.993 235.181 154.336 239.782 139.038 C 239.782 139.038 247.123 120.036 247.123 120.036 C 247.123 120.036 252.733 103.625 252.733 103.625 C 258.631 86.418 259.871 87.015 259.786 68.211 C 259.761 63.036 259.497 61.932 258.089 56.981 Z M 243.66 68.211 C 243.66 68.211 242.811 68.211 242.811 68.211 C 242.811 68.211 243.66 69.074 243.66 69.074 C 243.66 69.074 243.66 68.211 243.66 68.211 Z M 150.298 80.752 C 172.696 80.468 172 112.496 151.996 113.886 C 138.22 114.845 130.217 98.606 137.644 87.369 C 140.844 82.531 144.959 81.47 150.298 80.752 Z M 364.182 80.778 C 369.681 80.597 375.537 82.567 378.906 87.249 C 386.079 97.207 380.205 112.263 367.575 113.8 C 353.878 115.467 345.704 100.845 350.975 89.805 C 353.759 83.967 358.24 81.918 364.182 80.778 Z M 233.475 87.212 C 233.475 87.212 232.627 87.212 232.627 87.212 C 232.627 87.212 233.475 88.076 233.475 88.076 C 233.475 88.076 233.475 87.212 233.475 87.212 Z M 232.627 88.941 C 232.627 88.941 231.777 88.941 231.777 88.941 C 231.777 88.941 232.627 89.805 232.627 89.805 C 232.627 89.805 232.627 88.941 232.627 88.941 Z M 290.341 95.852 C 288.252 99.487 286.963 108.548 285.901 113.126 C 283.856 121.92 280.708 130.6 277.559 139.038 C 277.559 139.038 269.843 157.178 269.843 157.178 C 258.904 183.281 247.139 210.326 247.054 239.236 C 254.617 237.007 256.383 237.507 264.03 237.507 C 264.25 227.454 269.148 216.242 273.366 207.276 C 273.366 207.276 271.668 207.276 271.668 207.276 C 274.562 201.488 273.611 201.151 275.437 196.046 C 275.437 196.046 278.679 188.274 278.679 188.274 C 278.679 188.274 282.218 177.908 282.218 177.908 C 286.836 165.679 291.775 153.524 294.898 140.767 C 295.747 137.303 297.912 128.38 297.912 125.219 C 297.928 115.01 292.878 105.431 290.341 95.852 Z M 260.635 112.263 C 260.635 112.263 259.786 112.263 259.786 112.263 C 259.786 112.263 260.635 113.126 260.635 113.126 C 260.635 113.126 260.635 112.263 260.635 112.263 Z M 258.938 117.446 C 258.938 117.446 258.089 117.446 258.089 117.446 C 258.089 117.446 258.938 118.308 258.938 118.308 C 258.938 118.308 258.938 117.446 258.938 117.446 Z M 251.298 138.176 C 251.298 138.176 250.45 138.176 250.45 138.176 C 250.45 138.176 251.298 139.038 251.298 139.038 C 251.298 139.038 251.298 138.176 251.298 138.176 Z M 250.45 139.903 C 250.45 139.903 249.601 139.903 249.601 139.903 C 249.601 139.903 250.45 140.767 250.45 140.767 C 250.45 140.767 250.45 139.903 250.45 139.903 Z M 249.601 141.63 C 249.601 141.63 248.752 141.63 248.752 141.63 C 248.752 141.63 249.601 142.494 249.601 142.494 C 249.601 142.494 249.601 141.63 249.601 141.63 Z M 239.417 165.815 C 239.417 165.815 238.568 165.815 238.568 165.815 C 238.568 165.815 239.417 166.679 239.417 166.679 C 239.417 166.679 239.417 165.815 239.417 165.815 Z M 449.904 173.59 C 449.904 173.59 426.139 170.169 426.139 170.169 C 426.139 170.169 417.651 170.169 417.651 170.169 C 417.651 170.169 397.282 169.27 397.282 169.27 C 371.836 169.27 360.013 170.152 336.173 181.008 C 332.48 182.685 327.643 184.956 324.29 187.15 C 315.702 192.749 300.788 207.198 297.13 216.777 C 297.13 216.777 324.29 203.657 324.29 203.657 C 345.212 195.416 369.002 190.649 391.341 189.06 C 391.341 189.06 401.526 188.403 401.526 188.403 C 401.526 188.403 424.441 188.403 424.441 188.403 C 427.124 188.921 437.758 191.435 439.634 190.951 C 441.816 190.398 442.74 188.368 443.768 186.545 C 446.152 182.27 448.572 178.349 449.904 173.59 Z M 236.87 172.726 C 236.87 172.726 236.021 172.726 236.021 172.726 C 236.021 172.726 236.87 173.59 236.87 173.59 C 236.87 173.59 236.87 172.726 236.87 172.726 Z M 236.021 174.452 C 236.021 174.452 235.173 174.452 235.173 174.452 C 235.173 174.452 236.021 175.316 236.021 175.316 C 236.021 175.316 236.021 174.452 236.021 174.452 Z M 294.584 177.045 C 294.584 177.045 293.736 177.045 293.736 177.045 C 293.736 177.045 294.584 177.908 294.584 177.908 C 294.584 177.908 294.584 177.045 294.584 177.045 Z M 292.037 179.635 C 292.037 179.635 291.19 179.635 291.19 179.635 C 291.19 179.635 292.037 180.499 292.037 180.499 C 292.037 180.499 292.037 179.635 292.037 179.635 Z M 291.19 180.499 C 291.19 180.499 290.341 180.499 290.341 180.499 C 290.341 180.499 291.19 181.363 291.19 181.363 C 291.19 181.363 291.19 180.499 291.19 180.499 Z M 287.794 183.955 C 287.794 183.955 286.946 183.955 286.946 183.955 C 286.946 183.955 287.794 184.817 287.794 184.817 C 287.794 184.817 287.794 183.955 287.794 183.955 Z M 286.946 185.682 C 286.946 185.682 286.097 185.682 286.097 185.682 C 286.097 185.682 286.946 186.545 286.946 186.545 C 286.946 186.545 286.946 185.682 286.946 185.682 Z M 284.4 189.138 C 284.4 189.138 283.551 189.138 283.551 189.138 C 283.551 189.138 284.4 190 284.4 190 C 284.4 190 284.4 189.138 284.4 189.138 Z M 230.08 190 C 230.08 190 229.231 190 229.231 190 C 229.231 190 230.08 190.864 230.08 190.864 C 230.08 190.864 230.08 190 230.08 190 Z M 138.416 201.229 C 138.416 201.229 137.568 201.229 137.568 201.229 C 137.568 201.229 138.416 202.093 138.416 202.093 C 138.416 202.093 138.416 201.229 138.416 201.229 Z M 140.113 202.093 C 140.113 202.093 139.265 202.093 139.265 202.093 C 139.265 202.093 140.113 202.958 140.113 202.958 C 140.113 202.958 140.113 202.093 140.113 202.093 Z M 275.063 203.822 C 275.063 203.822 274.215 203.822 274.215 203.822 C 274.215 203.822 275.063 204.685 275.063 204.685 C 275.063 204.685 275.063 203.822 275.063 203.822 Z M 425.291 215.913 C 419.73 214.307 406.024 214.178 399.829 214.186 C 399.829 214.186 389.644 214.981 389.644 214.981 C 364.113 217.053 342.572 223.436 319.198 233.975 C 308.062 238.993 297.318 244.356 287.794 252.191 C 287.794 252.191 292.037 260.83 292.037 260.83 C 292.037 260.83 323.441 249.893 323.441 249.893 C 323.441 249.893 344.66 244.167 344.66 244.167 C 344.66 244.167 374.366 236.125 374.366 236.125 C 374.366 236.125 395.585 232.818 395.585 232.818 C 395.585 232.818 403.223 231.298 403.223 231.298 C 406.364 230.71 407.891 231.884 410.014 231.298 C 414.35 230.434 422.642 219.802 425.291 215.913 Z M 169.819 221.96 C 169.819 221.96 168.971 221.96 168.971 221.96 C 168.971 221.96 169.819 222.823 169.819 222.823 C 169.819 222.823 169.819 221.96 169.819 221.96 Z M 173.214 224.552 C 173.214 224.552 172.366 224.552 172.366 224.552 C 172.366 224.552 173.214 225.416 173.214 225.416 C 173.214 225.416 173.214 224.552 173.214 224.552 Z M 98.525 225.416 C 98.525 230.044 107.471 238.466 110.772 241.965 C 122.357 254.273 136.871 265.701 152.845 271.195 C 157.292 272.723 165.355 275.444 169.819 273.785 C 169.819 273.785 142.66 248.279 142.66 248.279 C 134.732 241.748 118.327 232.023 108.71 228.472 C 108.71 228.472 98.525 225.416 98.525 225.416 Z M 174.063 225.416 C 174.063 225.416 173.214 225.416 173.214 225.416 C 173.214 225.416 174.063 226.278 174.063 226.278 C 174.063 226.278 174.063 225.416 174.063 225.416 Z M 175.76 227.142 C 175.76 227.142 174.911 227.142 174.911 227.142 C 174.911 227.142 175.76 228.006 175.76 228.006 C 175.76 228.006 175.76 227.142 175.76 227.142 Z M 176.609 228.006 C 176.609 228.006 175.76 228.006 175.76 228.006 C 175.76 228.006 176.609 228.87 176.609 228.87 C 176.609 228.87 176.609 228.006 176.609 228.006 Z M 177.458 228.87 C 177.458 228.87 176.609 228.87 176.609 228.87 C 176.609 228.87 177.458 229.734 177.458 229.734 C 177.458 229.734 177.458 228.87 177.458 228.87 Z M 181.701 231.461 C 181.701 231.461 180.853 231.461 180.853 231.461 C 180.853 231.461 181.701 232.324 181.701 232.324 C 181.701 232.324 181.701 231.461 181.701 231.461 Z M 409.164 232.324 C 409.164 232.324 408.316 232.324 408.316 232.324 C 408.316 232.324 409.164 233.189 409.164 233.189 C 409.164 233.189 409.164 232.324 409.164 232.324 Z M 408.316 233.189 C 408.316 233.189 407.467 233.189 407.467 233.189 C 407.467 233.189 408.316 234.053 408.316 234.053 C 408.316 234.053 408.316 233.189 408.316 233.189 Z M 185.097 235.781 C 185.097 235.781 184.248 235.781 184.248 235.781 C 184.248 235.781 185.097 236.643 185.097 236.643 C 185.097 236.643 185.097 235.781 185.097 235.781 Z M 190.189 239.236 C 190.189 239.236 189.341 239.236 189.341 239.236 C 189.341 239.236 190.189 240.1 190.189 240.1 C 190.189 240.1 190.189 239.236 190.189 239.236 Z M 47.6 256.96 C 69.388 253.652 75.974 285.238 54.39 290.144 C 38.807 293.696 28.369 274.9 37.891 262.592 C 40.649 259.015 43.484 258.081 47.6 256.96 Z M 462.636 256.968 C 468.338 256.147 474.62 258.065 478.43 262.634 C 484.966 270.486 483.098 284.108 473.669 288.669 C 470.851 290.033 467.414 290.3 464.332 290.163 C 450.354 289.539 444.413 273.517 452.536 262.72 C 455.056 259.377 458.807 258.091 462.636 256.968 Z M 249.601 285.015 C 250.339 287.727 252.114 287.925 254.694 288.555 C 260.719 290.041 266.737 287.864 270.107 282.422 C 279.248 267.66 259.004 251.95 247.242 264.449 C 242.641 269.337 241.521 283.278 249.601 285.015 Z M 223.29 289.333 C 216.228 292.4 210.958 298.801 206.086 304.639 C 200.561 311.273 192.048 321.811 187.644 329.065 C 187.644 329.065 196.978 322.191 196.978 322.191 C 196.978 322.191 205.432 316.592 205.432 316.592 C 205.432 316.592 229.231 298.834 229.231 298.834 C 229.231 298.834 223.29 289.333 223.29 289.333 Z M 288.644 297.108 C 288.644 297.108 286.946 297.108 286.946 297.108 C 285.434 299.569 281.768 304.217 281.301 306.609 C 280.648 310.002 283.347 315.453 284.561 318.7 C 286.988 325.223 287.854 334.749 291.19 340.294 C 291.19 340.294 291.19 336.84 291.19 336.84 C 295.611 340.917 297.92 347.161 300.891 352.388 C 300.891 352.388 314.207 372.176 314.207 372.176 C 326.327 387.793 350.872 409.932 368.424 418.922 C 376.233 422.931 383.736 425.332 392.189 427.423 C 397.605 428.761 407.229 430.938 412.56 430.99 C 412.56 430.99 403.885 415.778 403.885 415.778 C 401.585 413.576 385.256 405.785 381.156 403.696 C 367.456 396.715 360.795 392.346 348.903 382.343 C 320.488 358.452 305.261 329.559 288.644 297.108 Z M 241.114 304.88 C 241.114 304.88 240.265 305.745 240.265 305.745 C 243.982 310.012 239.459 311.497 236.021 313.718 C 236.021 313.718 215.652 327.46 215.652 327.46 C 206.884 332.72 196.962 342.472 188.492 349.227 C 188.492 349.227 152.845 376.314 152.845 376.314 C 145.121 383.015 136.183 388.994 134.172 399.895 C 169.039 390.462 204.048 367.046 227.644 339.431 C 234.459 331.45 245.001 318.865 248.752 309.199 C 248.752 309.199 241.114 304.88 241.114 304.88 Z M 325.988 306.609 C 326.131 309.64 328.008 311.834 329.543 314.381 C 329.543 314.381 338.474 328.203 338.474 328.203 C 350.78 345.703 357.459 354.727 375.215 367.046 C 380.757 370.888 387.996 375.847 394.736 376.572 C 392.741 370.147 384.966 357.345 381.063 351.524 C 366.583 329.93 350.516 315.263 325.988 306.609 Z M 252.996 348.933 C 249.023 352.302 238.635 366.424 226.652 376.798 C 203.048 397.234 184.434 407.426 157.937 422.474 C 157.937 422.474 136.719 435.042 136.719 435.042 C 134.342 436.355 128.69 438.607 127.399 440.724 C 126.093 442.875 126.534 450.614 126.534 453.447 C 136.6 452.523 159.184 442.926 168.971 438.513 C 207.512 421.125 246.987 395.048 252.996 348.933 Z M 280.156 436.631 C 285.859 435.809 292.14 437.726 295.951 442.296 C 302.486 450.149 300.619 463.77 291.19 468.331 C 288.371 469.694 284.933 469.962 281.853 469.825 C 267.874 469.203 261.933 453.18 270.056 442.382 C 272.577 439.04 276.328 437.752 280.156 436.631 Z" style="fill: rgb(247, 190, 153); stroke: rgb(247, 190, 153);"/>
  <path id="選択範囲" stroke-width="1" d="M 189.417 164.652 C 189.417 164.652 189.417 145.592 189.417 145.592 C 189.553 133.966 193.73 116.855 197.37 105.74 C 206.618 77.549 213.028 66.131 227.536 40.764 C 232.642 31.832 240.288 21.037 246.749 13.04 C 249.357 9.818 253.142 4.862 257.609 4.654 C 261.658 4.464 265.161 8.449 267.582 11.308 C 274.23 19.148 280.095 27.829 285.738 36.432 C 299.768 57.831 318.316 94.348 322.979 119.602 C 325.545 133.489 324.948 143.842 324.948 157.721 C 341.263 150.583 350.835 146.953 368.42 143.383 C 400.743 136.808 443.089 138.61 476.673 138.662 C 478.77 138.662 481.489 138.575 483.475 139.225 C 491.437 141.841 488.232 151.172 486.05 156.855 C 481.591 168.421 476.298 182.516 470.348 193.242 C 461.68 208.852 453.096 224.655 441.478 238.291 C 427.465 254.743 418.242 260.314 400.811 271.594 C 385.442 281.531 384.232 283.151 366.715 290.272 C 366.715 290.272 396.174 312.191 396.174 312.191 C 403.249 319.494 414.824 338.043 419.76 347.452 C 432.904 372.498 439.884 396.773 444.802 424.557 C 444.802 424.557 448.092 449.681 448.092 449.681 C 448.271 451.067 448.22 453.537 448.092 454.879 C 446.43 463.585 436.876 461.35 430.645 460.44 C 430.645 460.44 413.597 458.102 413.597 458.102 C 413.597 458.102 388.025 452.757 388.025 452.757 C 388.025 452.757 370.977 447.871 370.977 447.871 C 342.865 439.736 318.794 428.352 298.771 406.069 C 293.426 400.126 289.232 396.582 285.346 389.037 C 282.592 383.682 280.47 374.179 278.919 368.244 C 273.19 379.463 271.579 386.585 263.55 397.605 C 248.94 417.652 224.374 438.15 202.91 450.114 C 202.91 450.114 162.993 468.749 162.993 468.749 C 162.993 468.749 119.522 483.832 119.522 483.832 C 114.902 484.941 106.676 487.748 102.832 483.832 C 99.703 480.886 100.036 476.225 99.882 472.205 C 99.882 472.205 99.064 451.414 99.064 451.414 C 99.064 451.414 99.848 441.018 99.848 441.018 C 101.459 411.813 107.801 380.442 124.61 356.115 C 124.61 356.115 141.65 335.946 141.65 335.946 C 141.65 335.946 157.265 316.765 157.265 316.765 C 157.265 316.765 174.074 300.669 174.074 300.669 C 162.643 300.565 147.181 298.165 136.57 293.798 C 128.762 290.593 121.874 285.507 115.115 280.561 C 115.115 280.561 108.44 275.995 108.44 275.995 C 85.026 257.022 66.309 231.672 51.571 205.37 C 41.419 187.247 37.941 178.115 30.15 159.454 C 27.465 153.034 22.888 141.997 32.579 139.155 C 34.514 138.592 37.353 138.662 39.398 138.662 C 76.605 138.601 120.809 135.794 156.174 147.767 C 169.462 152.272 177.654 157.357 189.417 164.652 Z M 266.133 11.308 C 266.133 11.308 265.28 11.308 265.28 11.308 C 265.28 11.308 266.133 12.174 266.133 12.174 C 266.133 12.174 266.133 11.308 266.133 11.308 Z M 241.413 22.57 C 241.413 22.57 240.561 22.57 240.561 22.57 C 240.561 22.57 241.413 23.437 241.413 23.437 C 241.413 23.437 241.413 22.57 241.413 22.57 Z M 258.461 39.031 C 258.461 39.031 256.756 39.031 256.756 39.031 C 254.719 44.264 251.352 48.838 248.693 53.759 C 248.693 53.759 229.36 91.012 229.36 91.012 C 223.726 103.878 218.16 119.541 215.611 133.385 C 215.611 133.385 212.645 159.454 212.645 159.454 C 210.062 175.62 208.195 182.265 208.17 199.305 C 208.161 206.21 207.232 209.355 208.17 216.632 C 197.276 203.88 184.115 191.119 169.812 182.369 C 151.792 171.34 135.726 167.866 115.26 165.276 C 115.26 165.276 102.474 163.786 102.474 163.786 C 102.474 163.786 72.642 163.786 72.642 163.786 C 68.542 163.786 61.782 163.188 58.151 164.652 C 61.527 168.351 64.842 176.261 67.698 181.113 C 68.9 183.157 70.588 186.597 72.821 187.359 C 74.781 188.312 78.829 187.307 81.165 187.359 C 85.043 187.056 86.176 187.541 89.688 187.896 C 111.569 190.123 132.623 198.829 151.059 210.897 C 166.326 220.886 184.507 237.771 197.941 250.498 C 203.967 256.199 213.949 267.851 220.956 271.213 C 220.956 271.213 222.371 253.886 222.371 253.886 C 222.371 253.886 221.885 248.687 221.885 248.687 C 221.885 248.687 222.66 235.692 222.66 235.692 C 222.686 220.496 225.039 204.989 230.068 190.643 C 230.068 190.643 259.092 117.003 259.092 117.003 C 262.57 105.991 266.116 93.1 266.133 81.482 C 266.133 81.482 266.133 68.487 266.133 68.487 C 266.013 58.203 263.439 47.963 258.461 39.031 Z M 253.347 43.363 C 253.347 43.363 252.494 43.363 252.494 43.363 C 252.494 43.363 253.347 44.229 253.347 44.229 C 253.347 44.229 253.347 43.363 253.347 43.363 Z M 145.945 81.075 C 151.485 80.157 156.949 80.919 161.109 85.13 C 169.88 94.01 165.737 109.37 153.616 112.212 C 132.972 117.063 126.196 87.33 145.945 81.075 Z M 361.601 81.075 C 367.823 80.035 373.176 80.833 377.609 85.857 C 385.34 94.634 381.726 109.102 370.125 112.143 C 349.267 117.618 341.126 87.685 361.601 81.075 Z M 157.026 83.215 C 157.026 83.215 156.174 83.215 156.174 83.215 C 156.174 83.215 157.026 84.081 157.026 84.081 C 157.026 84.081 157.026 83.215 157.026 83.215 Z M 290 93.611 C 287.332 97.726 287.656 102.786 286.462 107.473 C 286.462 107.473 277.486 136.063 277.486 136.063 C 267.462 163.604 253.065 189.031 248.164 218.365 C 247.056 224.967 246.536 225.157 246.527 232.227 C 246.527 232.227 246.527 239.158 246.527 239.158 C 246.527 239.158 258.461 237.875 258.461 237.875 C 264.794 237.711 263.788 234.739 265.638 227.895 C 268.016 219.119 271.051 212.448 275.39 204.503 C 279.387 197.184 283.624 191.076 288.857 184.613 C 291.969 180.775 295.515 178.167 297.381 173.316 C 298.737 169.79 300.177 156.595 300.228 152.523 C 300.348 141.988 299.231 127.234 296.913 117.003 C 296.913 117.003 293.409 104.007 293.409 104.007 C 293.409 104.007 290 93.611 290 93.611 Z M 455.363 164.652 C 455.363 164.652 427.235 163.673 427.235 163.673 C 427.235 163.673 411.04 163.673 411.04 163.673 C 390.327 163.82 358.438 170.353 339.439 178.644 C 323.073 185.783 312.622 193.372 301.737 207.969 C 299.112 211.486 296.827 214.25 295.114 218.365 C 295.114 218.365 313.014 208.714 313.014 208.714 C 335.833 198.196 363.05 191.552 388.025 189.698 C 388.025 189.698 398.254 189.031 398.254 189.031 C 398.254 189.031 424.678 189.031 424.678 189.031 C 427.661 189.534 438.631 191.752 440.694 190.955 C 443.08 190.036 445.015 185.921 446.174 183.712 C 449.039 178.237 454.008 170.422 455.363 164.652 Z M 162.14 175.915 C 162.14 175.915 161.288 175.915 161.288 175.915 C 161.288 175.915 162.14 176.781 162.14 176.781 C 162.14 176.781 162.14 175.915 162.14 175.915 Z M 295.966 178.514 C 295.966 178.514 295.114 178.514 295.114 178.514 C 295.114 178.514 295.966 179.38 295.966 179.38 C 295.966 179.38 295.966 178.514 295.966 178.514 Z M 187.712 276.411 C 184.729 272.183 174.219 262.592 169.812 258.209 C 150.88 239.348 134.609 226.933 109.293 218.304 C 101.954 215.792 94.018 213.73 86.278 213.167 C 86.278 213.167 93.796 224.43 93.796 224.43 C 93.796 224.43 99.064 232.227 99.064 232.227 C 104.707 236.342 105.679 238.768 110.179 243.489 C 110.179 243.489 122.079 254.31 122.079 254.31 C 143.584 271.654 160.674 276.411 187.712 276.411 Z M 426.383 214.9 C 388.306 209.797 355.753 218.053 320.686 232.573 C 313.193 235.675 303.706 240.284 296.819 244.529 C 294.56 245.932 289.463 249.034 288.406 251.434 C 287.204 254.128 289.548 257.472 290.554 259.95 C 292.02 263.554 293.656 271.715 293.409 275.544 C 293.409 275.544 328.357 272.079 328.357 272.079 C 340.342 272.053 350.298 266.448 360.748 261.137 C 360.748 261.137 385.468 249.814 385.468 249.814 C 397.197 244.182 398.859 242.216 408.721 234.254 C 414.466 229.628 423.272 221.605 426.383 214.9 Z M 161.288 218.365 C 161.288 218.365 160.436 218.365 160.436 218.365 C 160.436 218.365 161.288 219.231 161.288 219.231 C 161.288 219.231 161.288 218.365 161.288 218.365 Z M 162.14 219.231 C 162.14 219.231 161.288 219.231 161.288 219.231 C 161.288 219.231 162.14 220.098 162.14 220.098 C 162.14 220.098 162.14 219.231 162.14 219.231 Z M 70.085 231.36 C 70.085 231.36 69.232 231.36 69.232 231.36 C 69.232 231.36 70.085 232.227 70.085 232.227 C 70.085 232.227 70.085 231.36 70.085 231.36 Z M 75.199 238.291 C 75.199 238.291 74.347 238.291 74.347 238.291 C 74.347 238.291 75.199 239.158 75.199 239.158 C 75.199 239.158 75.199 238.291 75.199 238.291 Z M 197.089 249.554 C 197.089 249.554 196.236 249.554 196.236 249.554 C 196.236 249.554 197.089 250.42 197.089 250.42 C 197.089 250.42 197.089 249.554 197.089 249.554 Z M 91.393 256.485 C 91.393 256.485 90.54 256.485 90.54 256.485 C 90.54 256.485 91.393 257.351 91.393 257.351 C 91.393 257.351 91.393 256.485 91.393 256.485 Z M 44.513 257.836 C 49.048 257.03 54.17 256.952 58.143 259.69 C 70.485 268.206 67.28 286.478 53.037 289.813 C 33.389 294.422 24.797 264.836 44.513 257.836 Z M 124.636 258.217 C 124.636 258.217 123.784 258.217 123.784 258.217 C 123.784 258.217 124.636 259.084 124.636 259.084 C 124.636 259.084 124.636 258.217 124.636 258.217 Z M 127.193 258.217 C 127.193 258.217 126.341 258.217 126.341 258.217 C 126.341 258.217 127.193 259.084 127.193 259.084 C 127.193 259.084 127.193 258.217 127.193 258.217 Z M 461.33 257.905 C 467.953 256.554 474.44 257.914 478.898 263.45 C 486.058 272.33 481.932 286.322 470.706 289.467 C 456.761 293.374 444.401 279.096 451.357 266.014 C 453.59 261.804 457.068 259.534 461.33 257.905 Z M 270.395 284.208 C 270.838 279.737 274.878 271.906 268.357 264.438 C 260.924 255.93 243.885 258.304 242.436 273.812 C 241.541 283.307 249.63 289.761 258.461 289.371 C 264.078 289.12 265.928 287.197 270.395 284.208 Z M 177.483 264.282 C 177.483 264.282 176.631 264.282 176.631 264.282 C 176.631 264.282 177.483 265.148 177.483 265.148 C 177.483 265.148 177.483 264.282 177.483 264.282 Z M 178.336 265.148 C 178.336 265.148 177.483 265.148 177.483 265.148 C 177.483 265.148 178.336 266.014 178.336 266.014 C 178.336 266.014 178.336 265.148 178.336 265.148 Z M 214.136 266.014 C 214.136 266.014 213.284 266.014 213.284 266.014 C 213.284 266.014 214.136 266.881 214.136 266.881 C 214.136 266.881 214.136 266.014 214.136 266.014 Z M 214.989 266.881 C 214.989 266.881 214.136 266.881 214.136 266.881 C 214.136 266.881 214.989 267.747 214.989 267.747 C 214.989 267.747 214.989 266.881 214.989 266.881 Z M 215.841 267.747 C 215.841 267.747 214.989 267.747 214.989 267.747 C 214.989 267.747 215.841 268.614 215.841 268.614 C 215.841 268.614 215.841 267.747 215.841 267.747 Z M 222.66 288.54 C 217.35 290.264 213.77 294.154 209.875 298.078 C 201.564 306.456 194.923 316.402 187.806 325.793 C 187.806 325.793 174.841 340.98 174.841 340.98 C 174.841 340.98 157.196 355.526 157.196 355.526 C 145.953 367.317 135.862 385.329 131.455 401.165 C 141.224 400.68 156.796 393.273 165.55 388.586 C 189.306 375.885 210.966 359.884 228.627 339.152 C 235.276 331.346 246.758 318.437 249.085 308.466 C 249.085 308.466 229.411 298.251 229.411 298.251 C 229.411 298.251 222.66 288.54 222.66 288.54 Z M 290.852 292.871 C 290.852 292.871 290 292.871 290 292.871 C 290 292.871 290.852 293.738 290.852 293.738 C 290.852 293.738 290.852 292.871 290.852 292.871 Z M 290 293.738 C 287.067 295.973 280.802 302.245 280.069 305.867 C 279.183 310.268 282.268 315.795 283.717 319.728 C 283.717 319.728 288.193 337.055 288.193 337.055 C 291.457 349.609 298.191 366.329 305.522 376.908 C 320.72 398.844 346.735 415.469 371.83 423.18 C 371.83 423.18 399.106 430.717 399.106 430.717 C 399.106 430.717 408.483 432.268 408.483 432.268 C 411.142 433.039 419.376 435.256 420.723 432.268 C 421.618 429.989 419.615 423.483 419.027 421.092 C 418.421 418.605 416.93 411.068 415.43 409.482 C 413.878 407.836 406.002 407.256 403.368 406.658 C 396.2 405.021 383.507 400.646 376.944 397.388 C 345.712 381.915 325.689 355.569 307.312 326.659 C 307.312 326.659 299.069 312.798 299.069 312.798 C 295.259 306.932 290.75 300.928 290 293.738 Z M 407.63 382.106 C 406.965 374.664 399.345 360.378 395.577 353.516 C 383.951 332.342 368.582 315.7 347.11 304.784 C 338.347 300.331 328.025 296.423 318.129 296.337 C 320.388 304.195 326.678 311.905 330.676 318.862 C 343.641 341.439 364.823 366.174 388.877 376.613 C 388.877 376.613 397.401 379.264 397.401 379.264 C 401.476 380.503 403.223 381.413 407.63 382.106 Z M 254.199 346.585 C 252.767 347.313 252.324 347.382 251.062 348.569 C 251.062 348.569 235.668 366.737 235.668 366.737 C 223.24 379.359 209.15 390.007 194.531 399.849 C 184.618 406.528 165.652 416.803 154.469 420.641 C 154.469 420.641 136.57 426.524 136.57 426.524 C 134.481 427.069 129.051 427.936 127.611 429.027 C 125.446 430.647 125.693 434.243 125.497 436.721 C 125.003 443.019 123.946 449.421 124.636 455.746 C 135.76 453.701 158.271 444.526 168.96 439.554 C 168.96 439.554 189.417 429.738 189.417 429.738 C 208.144 419.662 229.369 402.812 240.953 384.705 C 245.309 377.895 250.278 365.801 252.068 357.848 C 252.068 357.848 254.199 346.585 254.199 346.585 Z M 278.066 438.107 C 284.689 436.755 291.176 438.115 295.634 443.651 C 302.794 452.532 298.668 466.522 287.442 469.667 C 273.497 473.574 261.138 459.298 268.093 446.216 C 270.326 442.005 273.804 439.736 278.066 438.107 Z" style="fill: rgb(6, 41, 67); transform-box: fill-box; transform-origin: 50% 50%; stroke: rgb(6, 41, 67);" transform="matrix(0.999998, 0.001752, -0.001752, 0.999998, 0, 0)"/>
</svg>